<svg width="348" height="301" viewBox="0 0 348 301" fill="none" xmlns="http://www.w3.org/2000/svg">
<g id="Group 3">
<g id="Group 1">
<circle id="Ellipse 1" cx="146" cy="155" r="146" fill="white"/>
<path id="Ellipse 2" d="M126.5 137.5C126.5 149.098 117 155 110 155C101.5 155 93 148.098 93 136.5" stroke="black" stroke-width="5" stroke-linecap="round"/>
<path id="Ellipse 3" d="M205.5 136C205.5 147.598 196 153.5 189 153.5C180.5 153.5 172 146.598 172 135" stroke="black" stroke-width="5" stroke-linecap="round"/>
<path id="Ellipse 4" d="M114.2 62.1531C123.861 71.6264 117.274 81.1568 107.414 91.2125C97.5541 101.268 81.7288 101.74 72.0674 92.2672C62.4059 82.7938 68.9931 73.2635 78.8531 63.2077C88.7131 53.1519 104.538 52.6797 114.2 62.1531Z" fill="#D9D9D9"/>
<path id="Ellipse 5" d="M252.403 110.026C249.376 114.784 244.92 112.922 239.968 109.772C235.015 106.621 233.454 100.209 236.481 95.4509C239.508 90.6924 243.964 92.5541 248.916 95.7048C253.869 98.8555 255.43 105.267 252.403 110.026Z" fill="#D9D9D9"/>
<path id="Ellipse 6" d="M164.833 62.4268C162.075 68.3235 153.06 67.9784 146.99 65.1397C140.92 62.3011 138.236 55.2197 140.993 49.3231C143.751 43.4264 152.766 43.7715 158.836 46.6101C164.906 49.4487 167.59 56.5301 164.833 62.4268Z" fill="#D9D9D9"/>
<path id="Ellipse 7" d="M52.9892 130.937C49.7467 128.717 50.8343 123.381 53.119 120.043C55.4037 116.706 59.8844 115.799 63.127 118.019C66.3696 120.238 65.2819 125.575 62.9972 128.912C60.7125 132.25 56.2318 133.156 52.9892 130.937Z" fill="#D9D9D9"/>
</g>
<circle id="Ellipse 8" cx="172" cy="209" r="30" fill="black"/>
<g id="Group 2">
<path id="Vector 1" d="M306 4.5H339.696L306 52.0714H343" stroke="#C1C1C1" stroke-width="9" stroke-linecap="round" stroke-linejoin="round"/>
<path id="Vector 3" d="M264 41.5H294.964L264 85.2143H298" stroke="#C1C1C1" stroke-width="9" stroke-linecap="round" stroke-linejoin="round"/>
<path id="Vector 2" d="M230 72.5H255.5L230 108.5H258" stroke="#C1C1C1" stroke-width="9" stroke-linecap="round" stroke-linejoin="round"/>
</g>
</g>
</svg>
